<svg width="573" height="163" viewBox="0 0 573 163" fill="none" xmlns="http://www.w3.org/2000/svg">
<g filter="url(#filter0_i_2298_5088)">
<path d="M486.845 26.8995V32.7883H477.479C476.738 32.7883 471.804 40.5642 470.533 41.9026C462.848 49.9997 448.177 55.3638 437.259 56.8039C430.575 57.6846 418.109 58.8141 411.693 57.9014C409.252 57.5534 408.08 55.76 405.411 55.0828C402.362 54.3092 391.987 53.7364 390.271 52.5586C388.705 51.4853 389.672 48.4338 389.428 46.7046C408.323 49.2368 428.12 51.2336 445.99 43.0536C456.935 38.0427 464.446 28.618 452.543 19.1825C440.294 9.47405 415.363 8.85304 400.478 10.9168C389.23 12.4747 376.202 15.4324 369.366 25.2667L364.374 21.2891C368.167 15.668 373.603 11.669 379.813 8.9842C382.619 7.77165 386.061 7.13994 388.569 5.96485C390.459 5.07886 391.588 3.06061 393.154 2.51991C396.704 1.29664 406.548 0.359792 410.577 0.137624C427.149 -0.769786 454.071 2.70193 467.045 13.7782C471.593 17.6622 473.812 22.3544 477.476 26.8995H486.842H486.845Z" fill="white"/>
<path d="M102.015 2.80884V24.4903C102.015 24.7714 103.669 26.8994 103.889 26.8994H145.37V10.036C149.629 7.53326 157.643 10.9969 160.911 14.3C163.39 16.8028 163.89 19.4447 164.129 22.8602C164.843 33.179 162.699 44.2847 163.569 54.7373H146.173L145.37 53.9343V34.3942H107.369V54.7373H86.2278L85.4248 53.9343V3.61186L86.2278 2.80884H102.018H102.015Z" fill="white"/>
<path d="M278.103 54.7373H259.104L240.094 34.6726C238.892 34.1265 222.845 34.1345 220.535 34.3621C219.777 34.437 219.015 34.3032 218.396 34.9001L199.691 54.7373H181.225L203.942 28.4759C204.41 27.9915 206.166 26.8994 206.648 26.8994H233.142L223.774 16.1951C221.812 20.2959 217.194 19.3644 213.343 19.4018C213.217 18.4168 213.899 17.7262 214.419 17.0035C217.663 12.5146 223.477 8.33358 226.683 3.57704C228.26 2.40731 230.335 2.03524 232.026 3.11932L276.776 52.0499L278.103 54.7373Z" fill="white"/>
<path d="M295.232 2.80884H302.992C303.87 2.80884 313.04 13.4622 314.261 15.0923C315.257 22.7879 313.742 31.3374 314.505 38.9393C314.887 42.7376 316.52 45.6873 320.642 46.1852C331.767 47.5262 346.663 44.4855 357.458 46.3003C359.613 46.6643 366.093 51.188 365.922 53.3882L364.998 54.657L301.664 54.4616C299.279 51.9482 295.808 49.5257 295.28 45.8613C294.895 43.1872 295.749 41.2787 295.789 38.9687C295.995 26.9128 295.805 14.8273 295.232 2.81151V2.80884Z" fill="white"/>
<path d="M411.239 24.8865C415.026 24.2869 426.908 25.2907 425.083 31.1929C423.19 37.3172 408.72 37.6599 405.254 32.2288C402.756 28.3127 407.778 25.4352 411.241 24.8892L411.239 24.8865Z" fill="white"/>
<path d="M284.207 83.342C286.83 83.7033 290.465 82.2606 292.229 84.6857L336.125 149.725V83.342H343.082V162.573L335.86 162.035L291.699 96.7256V161.77C290.056 163.079 285.789 163.058 284.207 161.77V83.342Z" fill="white"/>
<path d="M101.159 148.654V84.1451C103.014 82.5043 106.274 83.6767 108.651 83.3421V161.77C107.034 163.224 103.758 162.616 101.7 162.3L56.7332 96.1904V162.573H49.7764V83.3421C52.0784 83.6499 55.5153 82.5525 57.29 84.1264C71.2036 103.875 83.7253 125.211 97.829 144.76C98.7819 146.079 99.7937 147.766 101.159 148.657V148.654Z" fill="white"/>
<path d="M529.88 89.7662V118.675H566.81V124.564H530.415V156.149H571.361L572.078 157.038C572.231 157.525 572.148 158.036 572.191 158.531C572.306 159.859 572.456 161.749 571.361 162.573H522.923V83.342H571.361L572.078 84.2307C572.231 84.7179 572.148 85.2291 572.191 85.7243C572.306 87.052 572.456 88.9418 571.361 89.7662H529.88Z" fill="white"/>
<path d="M198.57 83.342V89.7662H156.821V119.746H193.216V125.634H156.821V161.77C155.119 163.379 152.083 162.265 149.864 162.573V83.342H198.57Z" fill="white"/>
<path d="M462.439 89.7662V161.77C460.584 163.411 457.321 162.239 454.947 162.573V89.7662H428.185V83.342H488.398L489.115 84.2307C489.267 84.7179 489.184 85.2291 489.227 85.7243C489.342 87.052 489.492 88.9418 488.398 89.7662H462.439Z" fill="white"/>
<path d="M241.923 83.342H234.966V162.573H241.923V83.342Z" fill="white"/>
<path d="M392.857 83.342H385.9V162.573H392.857V83.342Z" fill="white"/>
<path d="M6.95681 83.342H0V162.6H6.95681V83.342Z" fill="white"/>
</g>
<defs>
<filter id="filter0_i_2298_5088" x="0" y="0" width="572.27" height="166.744" filterUnits="userSpaceOnUse" color-interpolation-filters="sRGB">
<feFlood flood-opacity="0" result="BackgroundImageFix"/>
<feBlend mode="normal" in="SourceGraphic" in2="BackgroundImageFix" result="shape"/>
<feColorMatrix in="SourceAlpha" type="matrix" values="0 0 0 0 0 0 0 0 0 0 0 0 0 0 0 0 0 0 127 0" result="hardAlpha"/>
<feOffset dy="4"/>
<feGaussianBlur stdDeviation="2"/>
<feComposite in2="hardAlpha" operator="arithmetic" k2="-1" k3="1"/>
<feColorMatrix type="matrix" values="0 0 0 0 0 0 0 0 0 0 0 0 0 0 0 0 0 0 0.25 0"/>
<feBlend mode="normal" in2="shape" result="effect1_innerShadow_2298_5088"/>
</filter>
</defs>
</svg>
