<svg width="222" height="316" viewBox="0 0 222 316" fill="none" xmlns="http://www.w3.org/2000/svg">
<path d="M117.966 8C158.976 8 196.546 15.15 197.066 21.42C197.756 29.66 169.786 62.86 169.786 62.86L172.456 70.86C172.456 70.86 164.126 84.78 164.706 86.03C165.286 87.28 164.626 88.03 164.626 88.03L149.626 95.36L148.296 109.03L136.966 117.03L145.796 209.53C145.796 209.53 155.126 217.2 156.296 219.7C157.466 222.2 159.626 253.87 159.626 253.87C159.626 253.87 159.786 253.83 160.066 253.83C161.086 253.83 163.736 254.35 165.966 259.2C169.736 267.42 204.336 287.94 213.446 297.35C214.666 298.61 212.056 300.74 212.056 300.74C212.056 305.42 161.476 307.75 110.896 307.75C60.316 307.75 9.72598 305.41 9.72598 300.74C9.72598 300.74 7.11598 298.61 8.33598 297.35C17.446 287.93 52.046 267.41 55.816 259.2C58.046 254.35 60.686 253.83 61.716 253.83C61.996 253.83 62.156 253.87 62.156 253.87C62.156 253.87 64.326 222.2 65.486 219.7C66.646 217.2 75.986 209.53 75.986 209.53L84.816 117.03L73.486 109.03L72.156 95.36L57.156 88.03C57.156 88.03 56.486 87.28 57.076 86.03C57.656 84.78 49.326 70.86 49.326 70.86L51.996 62.86C51.996 62.86 24.006 29.66 24.686 21.42C25.206 15.15 62.776 8 103.786 8C106.136 8 108.506 8.02 110.876 8.07C113.246 8.02 115.606 8 117.966 8ZM117.966 0C115.596 0 113.216 0.02 110.876 0.07C108.536 0.02 106.156 0 103.786 0C84.266 0 63.806 1.63 47.666 4.48C39.826 5.86 33.466 7.44 28.746 9.17C25.626 10.31 17.336 13.35 16.716 20.76C16.386 24.7 17.246 30.54 31.636 50C35.946 55.83 40.246 61.21 42.976 64.55L41.716 68.34C40.976 70.55 41.246 72.98 42.446 74.98C44.846 78.99 47.646 83.98 48.826 86.47C48.666 89.35 49.806 91.83 51.166 93.35C51.856 94.13 52.696 94.76 53.636 95.22L64.626 100.59L65.526 109.81C65.756 112.13 66.976 114.23 68.876 115.57L76.416 120.89L68.336 205.49C64.786 208.51 59.736 213.09 58.236 216.31C57.546 217.78 56.906 219.17 55.406 237.05C55.066 241.13 54.756 245.17 54.536 248.2C52.456 249.67 50.326 252.02 48.586 255.77C46.496 259.2 32.806 268.93 24.606 274.74C15.516 281.19 6.93598 287.28 2.57598 291.79C0.77598 293.65 -0.134019 296.11 0.0159805 298.7C0.185981 301.61 1.69598 303.91 3.04598 305.41C4.12598 307.12 6.04598 308.8 9.37598 309.95C11.286 310.61 13.836 311.19 17.156 311.71C22.746 312.6 30.716 313.36 40.836 313.99C59.346 315.13 84.216 315.76 110.876 315.76C137.536 315.76 162.416 315.13 180.916 313.99C191.036 313.37 199.006 312.6 204.596 311.71C207.916 311.18 210.456 310.61 212.376 309.95C215.706 308.8 217.616 307.11 218.706 305.41C220.056 303.91 221.566 301.61 221.736 298.7C221.886 296.11 220.976 293.66 219.176 291.79C214.816 287.29 206.236 281.19 197.146 274.74C188.956 268.92 175.256 259.2 173.166 255.77C171.426 252.02 169.296 249.67 167.216 248.2C166.996 245.17 166.686 241.14 166.346 237.05C164.856 219.17 164.206 217.78 163.516 216.31C162.016 213.09 156.966 208.5 153.416 205.49L145.336 120.89L152.876 115.57C154.776 114.23 155.996 112.13 156.226 109.81L157.126 100.59L168.116 95.22C169.056 94.76 169.886 94.13 170.586 93.35C171.936 91.83 173.086 89.35 172.926 86.47C174.116 83.98 176.906 78.99 179.306 74.98C180.506 72.98 180.766 70.55 180.036 68.34L178.776 64.55C181.496 61.21 185.796 55.83 190.116 50C204.516 30.55 205.366 24.71 205.036 20.76C204.416 13.35 196.126 10.31 193.006 9.17C188.286 7.44 181.926 5.87 174.086 4.48C157.936 1.63 137.486 0 117.966 0Z" fill="white"/>
<path d="M171.106 64.02C164.356 59.67 57.406 59.67 50.646 64.02C50.816 63.91 51.166 63.49 51.166 62.87H47.166C47.166 60.49 48.586 58.96 68.336 57.79C79.566 57.12 94.676 56.76 110.876 56.76C127.076 56.76 142.186 57.13 153.416 57.79C173.156 58.96 174.586 60.49 174.586 62.87H170.586C170.586 63.49 170.936 63.91 171.106 64.02Z" fill="white"/>
<path d="M173.876 71.98C171.356 70.31 148.416 68.53 110.876 68.53C73.3362 68.53 50.3962 70.31 47.8762 71.98C48.0362 71.87 48.3662 71.46 48.3662 70.86H44.3662C44.3662 68.49 45.8962 66.84 66.4062 65.61C78.1462 64.91 93.9362 64.52 110.876 64.52C127.816 64.52 143.606 64.91 155.346 65.61C175.846 66.83 177.386 68.48 177.386 70.86H173.386C173.386 71.46 173.716 71.87 173.876 71.98Z" fill="white"/>
<path d="M166.176 89.68C160.486 87.62 61.2462 87.62 55.5662 89.68C55.9762 89.53 56.5762 88.91 56.5762 88.03H52.5762C52.5762 85.71 55.0862 85.51 59.2562 85.19C62.2562 84.95 66.5862 84.75 72.1062 84.58C82.3362 84.27 96.1062 84.09 110.876 84.09C125.646 84.09 139.416 84.26 149.646 84.58C155.166 84.75 159.496 84.96 162.496 85.19C166.666 85.52 169.176 85.72 169.176 88.03H165.176C165.176 88.91 165.776 89.53 166.186 89.68H166.176Z" fill="white"/>
<path d="M150.366 96.93C145.196 94.84 76.5461 94.84 71.3761 96.93C71.6761 96.81 72.2861 96.27 72.2861 95.36H68.2861C68.2861 93.06 69.6361 92.47 82.8861 91.9C90.2761 91.59 100.216 91.41 110.876 91.41C121.536 91.41 131.476 91.58 138.866 91.9C152.116 92.46 153.466 93.06 153.466 95.36H149.466C149.466 96.27 150.076 96.81 150.376 96.93H150.366Z" fill="white"/>
<path d="M110.876 257.75C97.4764 257.75 84.9864 257.58 75.7064 257.28C70.6964 257.11 66.7664 256.91 64.0364 256.68C60.4264 256.37 57.8164 256.15 57.8164 253.86H61.8164C61.8164 252.91 61.1364 252.33 60.8164 252.22C66.4264 254.27 155.316 254.27 160.926 252.22C160.616 252.33 159.926 252.91 159.926 253.86H163.926C163.926 256.15 161.316 256.37 157.706 256.68C154.976 256.91 151.046 257.11 146.036 257.28C136.756 257.59 124.266 257.75 110.866 257.75H110.876Z" fill="white"/>
<path d="M111.006 267.09C95.3462 267.09 80.7562 266.79 69.9062 266.24C64.0362 265.94 59.4362 265.58 56.2362 265.17C52.2162 264.65 49.3662 264.09 49.3662 261.7H53.3662C53.3662 260.97 52.9262 260.5 52.7162 260.38C59.2562 263.97 162.766 263.97 169.296 260.38C169.086 260.5 168.646 260.97 168.646 261.7H172.646C172.646 264.09 169.796 264.64 165.776 265.17C162.576 265.59 157.976 265.95 152.106 266.24C141.256 266.79 126.656 267.09 110.996 267.09H111.006Z" fill="white"/>
<path d="M198.796 24.99C196.036 21.71 162.416 18.31 110.916 18.31C59.4158 18.31 25.7958 21.71 23.0358 24.99C23.0758 24.95 23.1758 24.76 23.1758 24.5H19.1758C19.1758 21.61 21.4858 18.6 49.0558 16.37C65.3858 15.05 87.3558 14.32 110.916 14.32C134.476 14.32 156.446 15.05 172.776 16.37C200.346 18.61 202.656 21.61 202.656 24.5H198.656C198.656 24.76 198.756 24.95 198.796 24.99Z" fill="white"/>
<path d="M109.046 93.42H105.046V254.81H109.046V93.42Z" fill="white"/>
<path d="M116.386 93.42H112.386V254.81H116.386V93.42Z" fill="white"/>
<path d="M93.5748 93.3223L78.3438 255.659L80.335 255.846L95.566 93.5091L93.5748 93.3223Z" fill="white"/>
<path d="M128.107 93.3278L126.116 93.5157L141.344 254.909L143.335 254.721L128.107 93.3278Z" fill="white"/>
<path d="M114.376 108.03H107.046V110.03H114.376V108.03Z" fill="white"/>
<path d="M114.376 113.31H107.046V115.31H114.376V113.31Z" fill="white"/>
<path d="M114.376 209.2H107.046V211.2H114.376V209.2Z" fill="white"/>
<path d="M114.376 218.53H107.046V220.53H114.376V218.53Z" fill="white"/>
<path d="M99.093 94.3709L96.1074 255.733L98.1071 255.77L101.093 94.4079L99.093 94.3709Z" fill="white"/>
<path d="M121.102 93.3975L119.103 93.4592L124.09 254.852L126.089 254.79L121.102 93.3975Z" fill="white"/>
<path d="M71.2498 264.6L48.4277 307.27L50.1913 308.213L73.0134 265.543L71.2498 264.6Z" fill="white"/>
<path d="M75.756 264.066L56.2207 307.352L58.0437 308.175L77.5789 264.889L75.756 264.066Z" fill="white"/>
<path d="M150.46 264.543L148.781 265.629L175.408 306.787L177.087 305.701L150.46 264.543Z" fill="white"/>
<path d="M146.241 263.983L144.481 264.934L167.069 306.708L168.828 305.757L146.241 263.983Z" fill="white"/>
<path d="M113.583 264.764L111.584 264.809L112.559 307.758L114.558 307.713L113.583 264.764Z" fill="white"/>
<path d="M107.742 264.422L106.049 307.699L108.047 307.777L109.74 264.5L107.742 264.422Z" fill="white"/>
<path d="M158.456 37.97C158.406 38.41 158.356 38.85 158.306 39.29C157.596 39.21 156.886 39.14 156.176 39.06C156.006 39.04 154.706 40.66 154.386 40.94C152.466 42.57 149.056 43.46 146.576 43.58C145.056 43.65 142.236 43.69 140.816 43.39C140.276 43.27 140.036 42.86 139.446 42.66C138.766 42.44 136.446 42.17 136.066 41.88C135.726 41.62 135.986 40.95 135.946 40.56C140.196 41.37 144.606 42.14 148.806 40.67C151.376 39.77 153.306 37.83 150.776 35.46C148.166 33.02 142.406 32.43 138.946 32.69C136.336 32.87 133.286 33.38 131.626 35.52C131.256 35.21 130.886 34.89 130.526 34.58C131.446 33.35 132.746 32.51 134.206 31.99C134.866 31.75 135.666 31.65 136.266 31.42C136.716 31.25 137.006 30.81 137.376 30.71C138.216 30.48 140.516 30.42 141.446 30.43C145.306 30.48 151.496 31.79 154.226 34.58C155.186 35.55 155.586 36.65 156.316 37.76C157.026 37.83 157.736 37.91 158.456 37.99V37.97Z" fill="white"/>
<path d="M69.9262 32.19C70.0862 33.81 70.2562 35.42 70.4162 37.04C70.4162 37.1 70.8462 37.54 70.8962 37.54C74.0462 37.22 77.2062 36.94 80.3662 36.7C80.2662 35.44 80.1762 34.18 80.0762 32.92C81.0162 32.28 82.9262 32.92 83.7262 33.61C84.3362 34.13 84.4862 34.72 84.5962 35.48C84.9162 37.78 84.5962 40.31 84.9462 42.64C83.6362 42.73 82.3362 42.82 81.0262 42.92C80.9662 42.86 80.8962 42.81 80.8362 42.75C80.7262 41.29 80.6062 39.83 80.4962 38.37C77.6162 38.59 74.7362 38.85 71.8562 39.13C72.0062 40.65 72.1562 42.16 72.3062 43.68C70.7262 43.84 69.1362 44 67.5562 44.17C67.4862 44.12 67.4262 44.06 67.3562 44.01C66.9462 40.26 66.5262 36.52 66.1162 32.77C66.1762 32.7 66.2262 32.64 66.2862 32.57C67.4962 32.44 68.7162 32.31 69.9362 32.18L69.9262 32.19Z" fill="white"/>
<path d="M110.766 41.71C109.336 41.71 107.906 41.73 106.476 41.75C105.026 40.27 103.556 38.79 102.076 37.33C101.796 37.21 98.1358 37.33 97.6158 37.4C97.4458 37.42 97.2658 37.4 97.1358 37.54C95.7658 39.08 94.4158 40.62 93.0858 42.17C91.6958 42.24 90.3158 42.31 88.9258 42.39C90.5158 40.33 92.1358 38.27 93.7758 36.23C93.8758 36.12 94.2658 35.85 94.3758 35.85C96.3958 35.76 98.4158 35.69 100.436 35.63C99.6958 34.85 98.9558 34.07 98.2058 33.29C97.7858 34.23 96.7158 34.06 95.8358 34.1C95.7958 33.88 95.9458 33.72 96.0658 33.55C96.7758 32.51 98.0758 31.52 98.7858 30.43C99.1458 30.16 99.6158 30.06 100.026 30.29C103.596 33.85 107.066 37.46 110.456 41.11C110.556 41.31 110.656 41.51 110.756 41.71H110.766Z" fill="white"/>
<path d="M114.687 30.04C115.287 30.04 115.887 30.04 116.487 30.05C116.697 30.05 118.787 32.47 119.057 32.84C119.257 34.57 118.887 36.49 119.027 38.2C119.107 39.05 119.457 39.72 120.387 39.85C122.897 40.2 126.297 39.61 128.727 40.12C129.217 40.22 130.637 41.3 130.577 41.79C130.507 41.88 130.427 41.97 130.357 42.07C125.597 41.85 120.837 41.71 116.077 41.66C115.547 41.09 114.767 40.54 114.647 39.72C114.567 39.12 114.757 38.69 114.767 38.17C114.827 35.46 114.797 32.74 114.677 30.04H114.687Z" fill="white"/>
<path d="M141.236 35.98C142.116 35.9 144.816 36.33 144.296 37.62C143.756 38.95 140.476 38.8 139.756 37.53C139.246 36.61 140.436 36.04 141.236 35.98Z" fill="white"/>
<path d="M154.326 50.23C154.116 50.23 153.906 50.23 153.696 50.2C126.056 47.67 98.0156 47.66 70.3756 50.17C67.3356 50.44 64.4556 48.66 63.3556 45.83C62.1456 42.7 60.9256 39.57 59.6756 36.45C58.9056 34.53 59.0856 32.41 60.1656 30.62C61.3156 28.73 63.2756 27.51 65.5456 27.29C96.2756 24.32 127.436 24.32 158.166 27.29C160.386 27.51 162.336 28.68 163.486 30.52C164.576 32.25 164.806 34.33 164.116 36.23C162.996 39.36 161.886 42.5 160.786 45.64C159.816 48.41 157.216 50.22 154.316 50.22L154.326 50.23ZM153.776 49.2C156.456 49.45 158.956 47.85 159.846 45.31C160.936 42.17 162.046 39.03 163.176 35.89C163.756 34.28 163.566 32.52 162.636 31.05C161.646 29.48 159.976 28.47 158.066 28.28C127.406 25.32 96.3056 25.32 65.6456 28.28C63.6956 28.47 62.0056 29.51 61.0256 31.13C60.1056 32.64 59.9556 34.44 60.6056 36.07C61.8556 39.19 63.0756 42.32 64.2856 45.46C65.2256 47.88 67.6856 49.41 70.2856 49.17C97.9856 46.65 126.076 46.66 153.786 49.2H153.776Z" fill="white"/>
</svg>
