<?xml version="1.0" encoding="UTF-8"?>
<svg id="Layer_2" data-name="Layer 2" xmlns="http://www.w3.org/2000/svg" viewBox="0 0 121.55 121.66">
  <defs>
    <style>
      .cls-1 {
        fill: #fff;
      }
    </style>
  </defs>
  <g id="Layer_1-2" data-name="Layer 1">
    <g>
      <path class="cls-1" d="M28.42,24.48l39.45,68.33-8.05,12.66L.08,1.68C-.18-.38.16.37,1.57.18c3.61-.48,8.27.16,12.01.16l7.75,11.49,12.15.49L27.4.18h94.15l-16.98,30.71,16.98,30.03h-58.21l-7.59-12.15h43.53c-.78-5.24-9.41-13.99-9.11-18.66.25-3.88,8.52-13.03,9.11-17.79h-49.61l6.06,13.16c-.37.5-1.29-1.01-1.51-1.01h-25.82Z"/>
      <path class="cls-1" d="M.07,121.66l32.41-57.7,2.09.63,22.18,40.87c-2.15.46-2.3-1.09-3.21-2.35-7.21-9.98-12.61-23.68-19.56-34.09L5.13,119.64h111.36l-7.07-13.68-20.59-.45-1.7-3.08h22.78l11.64,19.24H.07Z"/>
      <rect class="cls-1" x="15.27" y="7.76" width="3.17" height="58.59" transform="translate(-16.37 13.54) rotate(-30.25)"/>
      <path class="cls-1" d="M120.54,12.33l-9.91,17.86,9.91,18.08c.32,1.02-2.28.66-3.53-.52-.96-.91-9.47-16.54-9.39-17.55,3.05-4.8,5.68-11.86,9.03-16.22,1.3-1.7,1.57-1.99,3.9-1.66Z"/>
      <polygon class="cls-1" points="94.22 76.11 72.45 76.11 70.93 73.07 92.7 73.07 94.22 76.11"/>
      <path class="cls-1" d="M102.32,88.26v2.02h-21.77c-.18,0-1.6-1.37-1.52-2.02h23.28Z"/>
    </g>
  </g>
</svg>