<?xml version="1.0" encoding="UTF-8"?>
<svg id="Layer_2" data-name="Layer 2" xmlns="http://www.w3.org/2000/svg" viewBox="0 0 105.81 121.26">
  <defs>
    <style>
      .cls-1 {
        fill: #fff;
      }
    </style>
  </defs>
  <g id="Layer_1-2" data-name="Layer 1">
    <g>
      <path class="cls-1" d="M88.08,83.03c-.28,1.29-1.67,2.15-2.7,2.86-9.61,6.6-22.3,12-32.4,18.17l-34.75-19.03c-.11-1.76-.46-2.18,1.55-2.06,6.1.38,29.02,18.39,33.21,18.05,11.85-5.15,22.55-15.37,35.1-17.99Z"/>
      <path class="cls-1" d="M91.32,68.64l14.48,8.29v14.2s-52.82,30.13-52.82,30.13L.19,90.41l-.03-14.32c.39-.62,11.51-5.21,13.01-6.72,1.93-1.93.15-5.37,1.94-8.19,2.12-3.35,12.14-5.76,13.74-8.54,1.12-1.95-.29-4.82,1.5-6.6l21.96-12.42,22.62,12.42c1.93,1.96.06,5.17,1.99,7.13,5,5.07,17.2,3.89,14.4,15.47ZM63.62,53.81c-.31-.5-9.96-5.21-10.55-5.24-1.19-.06-9.29,4.28-9.9,4.98-1.54,1.77.29,4.26-1.67,6.68-1.67,2.07-13.47,6.89-14,7.75-.93,1.48.72,5.68-.66,7.96-1.14,1.87-13.34,5.77-12.66,8.58l38.03,21.77,39.92-21.27c.51-2.36-.31-1.62-1.3-2.25-2.07-1.33-11.72-5.73-12.38-6.83-1.44-2.39.69-6.18-1.49-8.63-1.19-1.34-12.46-5.83-13.01-6.72-.9-1.45.57-5.31-.33-6.78Z"/>
      <path class="cls-1" d="M32.39,68.85c.08,1.21-.38,2.78.21,3.84.68,1.21,17.73,9.94,20.56,11.3,1.11-.04,18.23-9.91,19.27-11.06,1.15-1.26,1.59-2.39,1.48-4.08,3.27-.91,2.2,3.69,1.51,5.07-1.39,2.77-18.64,10.48-22.26,13.11-1.3.05-21.83-11.5-22.78-12.62-2.04-2.42-1.34-5.67,2-5.55Z"/>
      <g>
        <path class="cls-1" d="M62.64,13.03c-.72-5.36,1.43-5.8,6.18-6.95-.07,1.94,1.77,4.14,1.86,5.77.1,1.86-4.47,4.14-1.83,8.4,5.27-1.51,3.15-7.78,10.11-6.07l-8.11,16.19-17.69-10.08-18.08,8.99-8.75-13.6c-1.06-2.62,5.05-1.26,6.03-1.46l.98,4.59,4.12.44c1.72-3.74-2.09-5.28-2.13-6.54-.08-2.25,1.16-4.38,1.14-6.62,4.74,1.1,6.95,1.66,6.17,6.98,12.39,2.53,3.78-5.08,4.01-6.34l5.54-6.71c5.52,3.06,8.4,6.39,3.51,11.62,1.98,2.33,4.31,2.89,6.97,1.4Z"/>
        <path class="cls-1" d="M0,29.36c7.71-3.11,14.51-8.28,21.92-12,.92-.46,2.69-2.13,3.4-.65-5.05,6.3-14.98,9.83-22.12,13.82l-.17,40.84-3.03,2.54V29.36Z"/>
        <path class="cls-1" d="M105.29,73.9c-.66.08-2.02-1.34-2.02-1.52V31.89l-22.79-14.68c1.69-2.23,2.37-.19,3.66.4,7.12,3.28,14.25,8.41,21.16,12.25v44.04Z"/>
        <path class="cls-1" d="M91.11,58.72c-6.17-3.58-1.3-13.37-3.53-19.25-1.43-2.36-13.47-5.55-14.7-9.59,6.2.04,12.72,6.11,18.23,9.1v19.74Z"/>
        <path class="cls-1" d="M15.19,38.98l17.21-9.61c.46,2.09-1.08,2.3-2.3,3.26-3.33,2.61-8.89,5.22-12.88,6.86v18.22h-2.02v-18.73Z"/>
      </g>
    </g>
  </g>
</svg>