<?xml version="1.0" encoding="UTF-8"?>
<svg id="Layer_2" data-name="Layer 2" xmlns="http://www.w3.org/2000/svg" viewBox="0 0 121.48 122.21">
  <defs>
    <style>
      .cls-1 {
        fill: #fff;
      }
    </style>
  </defs>
  <g id="Layer_1-2" data-name="Layer 1">
    <g>
      <g>
        <path class="cls-1" d="M45.56.26v1c-1.81-.75-5.14,2.04-5.57,2.04H5.06c1.68,5.93,9.88,14.03,10.15,19.73.1,2.01-.22,1.62-2.04,1.53L0,.26h45.56Z"/>
        <path class="cls-1" d="M121.48.26l-13.17,24.29c-1.69-.48-2.27-1.6-1.84-3.31.71-2.82,11.5-17.22,9.95-18.96l-31.89,1.02-8.6-3.05h45.56Z"/>
      </g>
      <g>
        <path class="cls-1" d="M121.48,121.74h-44.54v-1c1.26.39,2.94-1.02,3.54-1.02h35.94c-1.36-7.48-10.06-15.46-11.71-22.26-.44-1.8-.32-2.43,1.57-3.05l15.2,27.33Z"/>
        <path class="cls-1" d="M5.06,119.72h35.94c.61,0,2.28,1.41,3.54,1.02v1s-44.54,0-44.54,0l15.2-27.33c.55-.42,1.98,1.28,2.01,2.49.1,3.55-11.78,17.51-12.15,22.82Z"/>
      </g>
      <g>
        <path class="cls-1" d="M31.1,103.79c-1.27-2.04-10.5-6.35-12.89-9.88-.78-1.14-6.06-15.38-6.04-16.24.05-2.12,3.6-3.77,3.82-6.2.14-1.51-2.49-5.9-2.83-8.95-3.2-28.72,1.25-47.57,29.38-58.7,12.86-5.09,23.55-5.09,36.41,0,28.22,11.17,32.57,29.93,29.38,58.71-.31,2.83-2.78,7.53-2.64,9.11s3.47,3.73,3.57,6.04c.05,1.21-4.67,14.13-5.57,15.64-2.42,4.08-9.32,6.48-12.12,10.15-3.07,4.01-2.19,7.98-7.19,12.04-12.33,10-44.68,9.54-52.04-6.37-.78-1.69-.5-4.16-1.24-5.34ZM90.76,25.92c-5.56-6-22.24-13.5-30.41-13.4-8.6.11-27.66,9.08-31.86,16.73-3.23,5.88-4.13,23.57-3.11,30.17.46,2.99,2.56,5.45,2.97,9.17.56,5.06-1.65,9.52-1.56,11.72.39,9,10.63,9.81,14.75,15.59,3.12,4.37.54,10.32,8.06,11.67l1.51-6.06,1.64,6.98,6.98,1.12v-6.08s3.04,0,3.04,0c1.5,1.43-3.94,8.87,5.97,4.96.87-1.06-1.5-7.49,3.14-6.97l.5,6.06c7.14-1.76,4.39-7.85,8.04-12.2,2.54-3.03,10.01-5.82,12.17-9.09,3.76-5.71-.31-10.94.53-17.7.42-3.36,2.51-5.85,2.97-9.17,1.14-8.15.45-27.24-5.33-33.47Z"/>
        <g>
          <path class="cls-1" d="M80.45,43.03c0,10.86-8.8,19.66-19.66,19.66s-19.66-8.8-19.66-19.66,8.8-19.66,19.66-19.66,19.66,8.8,19.66,19.66ZM77.66,43.09c0-9.31-7.55-16.86-16.86-16.86s-16.86,7.55-16.86,16.86,7.55,16.86,16.86,16.86,16.86-7.55,16.86-16.86Z"/>
          <path class="cls-1" d="M78.73,66.34c6.08-.64,11.65-1.06,10.34,7.23-1.82,11.5-23.86,7.97-23.37-.93.29-5.14,8.57-5.83,13.03-6.3Z"/>
          <path class="cls-1" d="M54.46,77c-1.37,2.18-13.43,3.88-16.29,3.03-5.82-1.74-8.98-13.07-1.27-14.02,3.66-.45,17.42,1.01,18.26,4.99.17.79-.38,5.51-.69,6.01Z"/>
          <path class="cls-1" d="M61.74,90.36c-.2-.16-2.33-.44-2.02.74l-1.48,2.28-3.07-2c-2.07-3.33,2.34-10.65,5.1-13.15,2.56-.54,10.39,13.03,4.01,15.17-2.28.49-2.15-2.7-2.54-3.02Z"/>
          <path class="cls-1" d="M75.22,43.13c0,7.98-6.47,14.45-14.45,14.45s-14.45-6.47-14.45-14.45,6.47-14.45,14.45-14.45,14.45,6.47,14.45,14.45ZM67.27,43.18c0-3.61-2.92-6.53-6.53-6.53s-6.53,2.92-6.53,6.53,2.92,6.53,6.53,6.53,6.53-2.92,6.53-6.53Z"/>
        </g>
      </g>
    </g>
  </g>
</svg>