<?xml version="1.0" encoding="UTF-8"?>
<svg id="Layer_2" data-name="Layer 2" xmlns="http://www.w3.org/2000/svg" viewBox="0 0 121.25 121.52">
  <defs>
    <style>
      .cls-1 {
        fill: #fff;
      }
    </style>
  </defs>
  <g id="Layer_1-2" data-name="Layer 1">
    <g>
      <path class="cls-1" d="M112.03,9l-7.14,9.58c21.67,24.41,21.88,59.74.19,84.25l6.95,9.42-9.42-6.95c-21,18.07-49.34,21.78-73.51,7.38-2.07-1.24-9.3-7.25-9.9-7.41-2.62-.69-5.03,3.38-6.89,4.96-.82.69-2.11,3.03-3.05,1.01-.7-1.51,6.6-7,7.59-8.61-22.6-22-22.36-61.88,0-84.03-1.85-2.15-4.24-3.9-6.06-6.07-.69-.82-3.03-2.11-1.01-3.05,1.51-.7,7,6.6,8.61,7.59,23.08-22.99,60.1-22.24,84.03-.96l9.61-7.12ZM119.17,60.79c0-32.39-26.25-58.64-58.64-58.64S1.89,28.4,1.89,60.79s26.25,58.64,58.64,58.64,58.64-26.25,58.64-58.64Z"/>
      <path class="cls-1" d="M116.74,60.77c0,31.03-25.16,56.19-56.19,56.19S4.37,91.8,4.37,60.77,29.53,4.58,60.56,4.58s56.19,25.16,56.19,56.19ZM104.26,60.79c0-24.14-19.57-43.71-43.71-43.71S16.83,36.65,16.83,60.79s19.57,43.71,43.71,43.71,43.71-19.57,43.71-43.71Z"/>
      <g>
        <path class="cls-1" d="M101.81,60.79c0,22.79-18.48,41.27-41.27,41.27s-41.27-18.48-41.27-41.27S37.75,19.52,60.54,19.52s41.27,18.48,41.27,41.27ZM59.39,22.16c-19.96-.99-38.29,17.59-37.45,37.45.47.44,5.69-.96,6.07,2.02h-6.08c-1.35,19.43,17.08,37.37,35.95,38.49,3.78.22-.98-7.02,3.53-6.08.93,1.24-1.76,6.27,1.51,6.08,20.1-1.19,36.28-18.6,36.96-38.47-.84-.84-7.21,1.86-6.07-2.02l6.09-.53c-1.47-20.04-17.77-37.64-38.49-36.94l-.5,6.07-1.53-6.07Z"/>
        <path class="cls-1" d="M91.14,60.75c0,16.9-13.7,30.61-30.61,30.61s-30.61-13.7-30.61-30.61,13.7-30.61,30.61-30.61,30.61,13.7,30.61,30.61ZM78.67,60.76c0-10.01-8.11-18.12-18.12-18.12s-18.12,8.11-18.12,18.12,8.11,18.12,18.12,18.12,18.12-8.11,18.12-18.12Z"/>
      </g>
    </g>
  </g>
</svg>